<svg t="1678951771971" class="icon" viewBox="0 0 1024 1024" version="1.1" xmlns="http://www.w3.org/2000/svg" p-id="1232" width="200" height="200"><path d="M180.29 514.52c-15.89 23.19-28.45 49.53-36.63 78.4-37.55 132.44 30.99 267.86 153.09 302.48 115.54 32.76 237.58-36.52 282.19-156.27a235.101 235.101 0 0 0 43.8 17.31c123.65 35.06 252.2-36.37 287.12-159.54 34.92-123.17-37-251.44-160.66-286.5-27.93-7.92-56.11-10.36-83.41-8.04-31.08-77.55-102.25-142.9-196.41-169.6C318.5 89.98 165.75 162.66 128.2 295.1c-21.84 77.04 0.19 157.31 52.09 219.42z" fill="#EDE4F9" p-id="1233"></path><path d="M907.3 512.01l-1.05 1.05c-220.88 220.88-579 220.88-799.88 0l-1.05-1.05 1.05-1.06c220.88-220.88 579-220.88 799.88 0l1.05 1.06z" fill="#5151D6" p-id="1234"></path><path d="M624.22 512.01c0 65.12-52.79 117.9-117.91 117.9-65.11 0-117.91-52.79-117.91-117.9 0-65.13 52.8-117.91 117.91-117.91 65.12-0.01 117.91 52.78 117.91 117.91" fill="#EA82FA" p-id="1235"></path></svg>
